<?xml version="1.0" standalone="no"?>
<!DOCTYPE svg PUBLIC "-//W3C//DTD SVG 20010904//EN"
 "http://www.w3.org/TR/2001/REC-SVG-20010904/DTD/svg10.dtd">
<svg version="1.0" xmlns="http://www.w3.org/2000/svg"
 width="658.000000pt" height="213.000000pt" viewBox="0 0 658.000000 213.000000"
 preserveAspectRatio="xMidYMid meet">

<g transform="translate(0.000000,213.000000) scale(0.100000,-0.100000)"
fill="#000000" stroke="none">
<path d="M1766 2103 c-144 -30 -260 -95 -352 -196 -95 -106 -155 -258 -158
-402 l-1 -70 229 0 229 0 11 55 c24 119 91 173 215 173 43 0 80 -6 104 -18
141 -67 141 -272 0 -469 -20 -28 -207 -222 -415 -431 l-378 -381 0 -167 0
-167 685 -2 c377 0 691 -1 698 -2 9 -1 13 51 15 222 l2 222 -340 0 c-187 0
-340 3 -340 8 0 4 98 104 219 222 229 226 291 302 356 444 58 125 70 178 69
316 -1 140 -16 213 -67 319 -46 95 -167 214 -268 264 -145 71 -351 95 -513 60z"/>
<path d="M2917 2093 c-4 -3 -7 -78 -7 -165 l0 -158 164 0 c90 0 171 -3 180 -6
14 -6 16 -68 16 -606 0 -543 2 -600 16 -594 9 3 85 6 170 6 l154 0 0 594 c0
594 0 595 21 601 11 4 87 6 167 5 81 -1 153 -2 160 -1 10 1 12 38 10 164 l-3
162 -521 3 c-286 1 -524 -1 -527 -5z"/>
<path d="M4126 2078 c-8 -31 -8 -1379 0 -1457 l7 -61 456 2 456 3 0 165 0 165
-285 5 -285 5 0 135 0 135 253 3 252 2 0 163 0 162 -252 0 -253 0 -3 127 -3
128 283 2 283 3 3 168 2 167 -454 0 -454 0 -6 -22z"/>
<path d="M5730 2089 c-252 -38 -458 -188 -574 -417 -73 -144 -92 -372 -47
-547 36 -140 90 -235 190 -336 94 -94 167 -139 296 -185 76 -27 89 -29 250
-29 161 0 174 2 250 28 196 69 336 193 421 372 18 39 37 89 43 113 l9 42 -173
0 -173 0 -13 -31 c-28 -69 -86 -126 -166 -166 -76 -38 -78 -38 -198 -38 -115
0 -123 1 -191 33 -154 72 -237 211 -237 397 -1 230 124 392 333 436 73 15 192
6 262 -21 74 -27 160 -105 190 -171 l23 -49 172 0 c95 0 173 4 173 8 0 5 -7
33 -16 63 -67 224 -270 416 -507 478 -95 25 -229 33 -317 20z"/>
<path d="M315 1989 c-88 -50 -191 -108 -230 -129 l-70 -38 -3 -232 c-2 -214
-1 -232 14 -226 10 4 113 60 231 126 118 66 216 120 219 120 2 0 4 -355 4
-789 l0 -789 228 -4 c125 -2 230 -2 235 0 4 2 7 464 7 1028 l0 1024 -237 -1
-238 0 -160 -90z"/>
<path d="M2920 235 c0 -182 2 -205 16 -205 10 0 14 6 10 15 -3 9 0 15 8 15 7
0 21 8 30 19 14 15 17 41 18 152 0 78 -4 146 -11 162 -6 16 -9 33 -5 38 3 5
-11 9 -30 9 l-36 0 0 -205z"/>
<path d="M3252 433 c25 -7 66 -73 82 -134 16 -62 30 -91 74 -158 27 -40 31
-41 37 -22 14 45 -7 104 -77 213 -66 101 -73 108 -102 107 -17 -1 -24 -3 -14
-6z"/>
<path d="M4122 236 c2 -112 6 -208 11 -212 4 -4 23 10 43 31 35 38 36 41 33
110 -2 38 -2 98 -1 133 l2 62 75 0 c41 0 75 3 76 8 0 4 1 22 2 40 l2 32 -123
0 -123 0 3 -204z"/>
<path d="M4440 230 l0 -210 40 0 c25 0 40 5 41 13 0 6 1 56 2 109 2 84 9 122
20 107 2 -2 36 -55 77 -116 65 -100 76 -113 101 -113 l29 0 0 210 0 210 -40 0
-40 0 0 -114 c0 -115 -9 -146 -31 -104 -6 13 -39 67 -73 121 -57 90 -63 97
-93 97 l-33 0 0 -210z"/>
<path d="M4840 276 c0 -90 3 -184 6 -210 7 -46 7 -46 45 -46 l39 0 2 103 c1
56 1 113 1 127 0 14 -1 62 -2 108 l-1 82 -45 0 -45 0 0 -164z"/>
<path d="M5060 230 l0 -210 45 0 45 0 0 210 0 210 -45 0 -45 0 0 -210z"/>
<path d="M5335 428 c-79 -241 -125 -386 -125 -396 0 -8 16 -12 44 -12 40 0 44
2 52 33 l10 32 81 3 81 3 12 -36 c11 -33 14 -35 56 -35 24 0 44 3 44 8 0 4
-29 98 -66 210 l-65 202 -60 0 c-39 0 -61 -4 -64 -12z m94 -167 c28 -91 27
-101 -6 -102 -35 -2 -67 2 -72 7 -5 4 27 140 36 157 11 19 23 1 42 -62z"/>
<path d="M5650 231 l0 -212 42 3 42 3 1 65 c0 59 2 65 22 68 16 2 35 -14 78
-67 57 -71 57 -71 107 -71 39 0 48 3 41 13 -5 6 -31 40 -58 74 l-48 63 37 40
c31 34 36 47 36 89 0 42 -5 54 -39 92 l-38 44 -112 3 -111 4 0 -211z m188 113
c23 -16 29 -53 12 -84 -12 -23 -85 -37 -105 -20 -10 9 -13 26 -11 59 3 25 5
49 5 54 2 13 76 7 99 -9z"/>
<path d="M6037 268 c1 -95 3 -190 3 -211 l0 -38 41 3 40 3 2 208 2 207 -45 0
-45 0 2 -172z"/>
<path d="M6246 237 c-36 -112 -66 -207 -66 -211 0 -3 20 -6 45 -6 42 0 46 2
59 34 l14 35 74 -2 c72 -2 73 -2 87 -35 14 -30 18 -32 62 -32 42 0 47 2 42 20
-3 10 -33 104 -67 207 l-62 188 -61 3 -62 3 -65 -204z m146 57 c3 -16 12 -48
19 -72 6 -23 9 -45 6 -48 -9 -9 -74 -12 -86 -4 -9 5 -6 27 11 84 23 79 37 91
50 40z"/>
<path d="M3964 383 c5 -31 -13 -60 -22 -35 -2 7 -8 10 -12 7 -5 -3 -2 -15 8
-25 18 -22 102 -29 102 -10 0 6 -18 30 -41 53 l-41 42 6 -32z m30 -38 c-4 -8
-11 -15 -16 -15 -6 0 -5 6 2 15 7 8 14 15 16 15 2 0 1 -7 -2 -15z"/>
<path d="M3653 239 c-20 -12 -30 -26 -26 -35 6 -16 39 -19 48 -3 6 8 15 59 11
59 0 0 -15 -10 -33 -21z"/>
<path d="M3949 141 c-23 -31 -82 -61 -122 -61 -14 0 -18 -3 -10 -8 9 -6 7 -13
-9 -26 -11 -10 -23 -14 -27 -10 -3 5 -16 9 -29 10 -16 0 -19 -3 -12 -10 6 -6
41 -12 78 -14 59 -3 72 -1 104 21 38 27 48 26 48 -5 0 -11 5 -16 11 -12 6 3 9
15 6 25 -8 28 12 23 23 -6 18 -47 30 -27 27 48 l-2 72 -32 3 c-25 3 -36 -3
-54 -27z"/>
<path d="M3456 77 c3 -10 9 -15 12 -12 3 3 0 11 -7 18 -10 9 -11 8 -5 -6z"/>
</g>
</svg>
